<svg xmlns="http://www.w3.org/2000/svg" width="512.127" height="512" viewBox="0 0 512.127 512">
  <g id="boss" transform="translate(0 -0.063)">
    <g id="XMLID_2880_">
      <g id="XMLID_924_">
        <path id="XMLID_1259_" d="M458.246,409.233a46.168,46.168,0,0,0,8.325-26.487v-9.111a46.444,46.444,0,1,0-92.888,0v9.111a46.168,46.168,0,0,0,8.325,26.487,55.524,55.524,0,0,0-43.881,23.772,55.524,55.524,0,0,0-43.881-23.772,46.168,46.168,0,0,0,8.325-26.487v-9.111a46.444,46.444,0,1,0-92.888,0v9.111a46.168,46.168,0,0,0,8.325,26.487,55.522,55.522,0,0,0-43.944,23.861,55.526,55.526,0,0,0-43.944-23.861,46.168,46.168,0,0,0,8.325-26.487v-9.111a46.444,46.444,0,0,0-92.888,0v9.111a46.168,46.168,0,0,0,8.325,26.487A55.611,55.611,0,0,0,0,464.746v37.317a10,10,0,0,0,10,10H502.127a10,10,0,0,0,10-10V464.746A55.611,55.611,0,0,0,458.246,409.233Zm-64.563-35.6a26.444,26.444,0,1,1,52.888,0v9.111a26.444,26.444,0,0,1-52.888,0Zm-164,0a26.444,26.444,0,0,1,52.888,0v9.111a26.444,26.444,0,1,1-52.888,0v-9.111Zm-164.127,0a26.444,26.444,0,1,1,52.888,0v9.111a26.444,26.444,0,1,1-52.888,0ZM164,492.063H20V464.746A35.6,35.6,0,0,1,55.556,429.19h72.889A35.6,35.6,0,0,1,164,464.746v27.317Zm20.127-27.317a35.6,35.6,0,0,1,35.556-35.556h72.889a35.6,35.6,0,0,1,35.556,35.556v27.317h-144V464.746Zm308,27.317h-144V464.746a35.6,35.6,0,0,1,35.556-35.556h72.889a35.6,35.6,0,0,1,35.556,35.556v27.317Z" fill="#fff"/>
        <path id="XMLID_1309_" d="M187,268.844a10.005,10.005,0,1,0,7.069,2.93A10.071,10.071,0,0,0,187,268.844Z" fill="#fff"/>
        <path id="XMLID_1315_" d="M64,288.841h83a10,10,0,0,0,0-20H74v-70.81a33.751,33.751,0,0,1,33.713-33.713h16.535v46.749a10,10,0,0,0,16.929,7.211L177,183.858v30.106a10,10,0,0,0,20,0V183.858l35.823,34.42a10,10,0,0,0,16.929-7.211V164.318h16.535A33.751,33.751,0,0,1,300,198.031v70.81H227a10,10,0,0,0,0,20h83a10,10,0,0,0,10-10v-80.81a53.774,53.774,0,0,0-53.713-53.713H233.461A63.875,63.875,0,0,0,251.12,100.2V64.183a64.12,64.12,0,0,0-128.24,0V100.2a63.875,63.875,0,0,0,17.659,44.12H107.713A53.774,53.774,0,0,0,54,198.031v80.81A10,10,0,0,0,64,288.841Zm80.248-124.523h24.221L144.248,187.59V164.318Zm85.5,23.273-24.221-23.272h24.221v23.272ZM142.88,64.184a44.121,44.121,0,0,1,88-4.584l-20.9-12.28a10,10,0,0,0-12.73,2.2,49.343,49.343,0,0,1-37.91,17.693H142.88V64.184Zm0,36.014V87.212h16.461a69.267,69.267,0,0,0,47.348-18.631l24.432,14.354V100.2a44.12,44.12,0,0,1-88.241,0Z" fill="#fff"/>
        <path id="XMLID_1330_" d="M322.818,162.76a10,10,0,0,0,9.612.611l33.9-15.918H490.541A21.483,21.483,0,0,0,512,125.994V21.522A21.483,21.483,0,0,0,490.541.063h-150.9A21.483,21.483,0,0,0,318.18,21.522v132.8A10,10,0,0,0,322.818,162.76ZM338.18,21.522a1.46,1.46,0,0,1,1.459-1.459h150.9A1.46,1.46,0,0,1,492,21.522V125.993a1.46,1.46,0,0,1-1.459,1.459H364.1a10.008,10.008,0,0,0-4.251.948L338.18,138.574Z" fill="#fff"/>
        <path id="XMLID_1331_" d="M367.434,62.639h95.312a10,10,0,0,0,0-20H367.434a10,10,0,1,0,0,20Z" fill="#fff"/>
        <path id="XMLID_1332_" d="M367.434,102.639h65.753a10,10,0,1,0,0-20H367.434a10,10,0,0,0,0,20Z" fill="#fff"/>
      </g>
    </g>
  </g>
</svg>
