<svg xmlns="http://www.w3.org/2000/svg" width="44.54" height="39.937" viewBox="0 0 44.54 39.937"><defs><style>.a{fill:#fdc794;}.b{fill:#0096e6;}.c{fill:#f9a671;}.d{fill:#5e5f62;}</style></defs><g transform="translate(0 -2.997)"><path class="a" d="M23.576,43.819c8.636.12,13.454-3.364,16.133-7.057a17.271,17.271,0,0,0,2.8-13.3C39.4,6.685,23.576,6.826,23.576,6.826S7.748,6.685,4.643,23.461a17.268,17.268,0,0,0,2.8,13.3C10.122,40.455,14.94,43.939,23.576,43.819Z" transform="translate(-1.005 -0.889)"/><path class="b" d="M43.5,30.039h0a1.578,1.578,0,0,1-1.6-1.548h0c-.015-.865,1.511-3.185,1.522-3.173h0s1.611,2.256,1.626,3.122h0A1.579,1.579,0,0,1,43.5,30.039Z" transform="translate(-9.724 -5.18)"/><path class="b" d="M14.6,34.571h0A1.578,1.578,0,0,1,13,33.023h0c-.015-.865,1.511-3.185,1.522-3.173h0s1.611,2.256,1.626,3.122h0A1.579,1.579,0,0,1,14.6,34.571Z" transform="translate(-3.017 -6.232)"/><path class="c" d="M3.455,29.966a1.746,1.746,0,0,0-1.2-.528C1.011,29.438,0,30.958,0,32.835s1.011,3.4,2.257,3.4a1.845,1.845,0,0,0,1.391-.74A18.152,18.152,0,0,1,3.455,29.966Z" transform="translate(0 -6.136)"/><path class="c" d="M56.639,25.445c-.432-1.825-1.766-3.071-2.979-2.781a1.7,1.7,0,0,0-.941.657,24.835,24.835,0,0,1,1.02,3.807,18.817,18.817,0,0,1,.252,1.937,1.724,1.724,0,0,0,1.235.21C56.438,28.984,57.071,27.27,56.639,25.445Z" transform="translate(-12.235 -4.554)"/><path class="d" d="M12.508,15.373a.766.766,0,0,1-.543-.225l-3.84-3.84a.768.768,0,0,1,1.086-1.086l3.84,3.84a.768.768,0,0,1-.543,1.311Z" transform="translate(-1.833 -1.625)"/><path class="d" d="M15.972,12.141a.769.769,0,0,1-.688-.425l-2.3-4.608a.768.768,0,1,1,1.374-.687l2.3,4.608a.769.769,0,0,1-.686,1.112Z" transform="translate(-2.994 -0.696)"/><path class="d" d="M20.2,10.141a.769.769,0,0,1-.729-.525L17.939,5.009A.768.768,0,0,1,19.4,4.523l1.536,4.608a.767.767,0,0,1-.729,1.011Z" transform="translate(-4.154 -0.232)"/><path class="d" d="M25.435,9.141a.768.768,0,0,1-.756-.642l-.768-4.608a.768.768,0,0,1,1.515-.252l.768,4.608a.767.767,0,0,1-.631.883A.72.72,0,0,1,25.435,9.141Z" transform="translate(-5.547 0)"/><path class="d" d="M29.668,9.141a.768.768,0,0,1-.768-.768V3.766a.768.768,0,1,1,1.536,0V8.374A.767.767,0,0,1,29.668,9.141Z" transform="translate(-6.707 0)"/><path class="d" d="M33.668,9.141A.769.769,0,0,1,32.94,8.13l1.536-4.608a.768.768,0,0,1,1.457.486L34.4,8.616A.768.768,0,0,1,33.668,9.141Z" transform="translate(-7.635)"/><path class="d" d="M37.668,10.141A.769.769,0,0,1,36.94,9.13l1.536-4.608a.768.768,0,0,1,1.457.486L38.4,9.616A.768.768,0,0,1,37.668,10.141Z" transform="translate(-8.563 -0.232)"/><path class="d" d="M40.667,12.141a.767.767,0,0,1-.686-1.111l2.3-4.608a.768.768,0,0,1,1.374.687l-2.3,4.608A.768.768,0,0,1,40.667,12.141Z" transform="translate(-9.26 -0.696)"/><path class="c" d="M23.767,48.537a.768.768,0,0,1-.618-1.222c2.543-3.464,7.277-5.773,10.772-5.243a4.284,4.284,0,0,1,3.627,2.833.768.768,0,1,1-1.449.507,2.747,2.747,0,0,0-2.4-1.822c-2.933-.432-7.108,1.64-9.307,4.634A.771.771,0,0,1,23.767,48.537Z" transform="translate(-5.338 -9.051)"/><path class="c" d="M30.264,36.268A5.064,5.064,0,0,1,26.4,34.2c-.036-.047-.066-.092-.1-.139a.8.8,0,0,1,.192-1.079.737.737,0,0,1,1.031.147c.025.035.049.071.072.107a3.4,3.4,0,0,0,2.972,1.475A2.636,2.636,0,0,0,32.581,32.9a4.864,4.864,0,0,0-.194-4.121,4.1,4.1,0,0,0-2.61-2.187,2.32,2.32,0,0,0-1.707.274.768.768,0,0,1-.773-1.327,3.851,3.851,0,0,1,2.81-.447,5.641,5.641,0,0,1,3.642,2.977A6.4,6.4,0,0,1,34,33.488a4.133,4.133,0,0,1-3.225,2.746A3.778,3.778,0,0,1,30.264,36.268Z" transform="translate(-6.074 -5.106)"/><path class="c" d="M15.825,26.765a5.354,5.354,0,0,1-2.4-.571.768.768,0,1,1,.687-1.374A3.837,3.837,0,0,0,19.263,23.1a.768.768,0,0,1,1.374.687,5.385,5.385,0,0,1-4.812,2.975Z" transform="translate(-3.017 -4.568)"/><path class="c" d="M39.9,22.081A5.382,5.382,0,0,1,35.08,19.11a.768.768,0,1,1,1.374-.687,3.844,3.844,0,0,0,5.151,1.717.768.768,0,1,1,.687,1.374A5.343,5.343,0,0,1,39.9,22.081Z" transform="translate(-8.122 -3.481)"/></g></svg>