<svg xmlns="http://www.w3.org/2000/svg" width="44.434" height="39.842" viewBox="0 0 44.434 39.842"><defs><style>.a{fill:#fdc794;}.b{fill:#f9a671;}.c{fill:#5e5f62;}.d{fill:#fff;}.e{fill:#7f5b53;}.f{fill:#802d40;}.g{fill:#e64c3c;}</style></defs><path class="a" d="M23.53,43.731c8.616.12,13.422-3.356,16.094-7.04a17.23,17.23,0,0,0,2.794-13.271C39.321,6.684,23.53,6.826,23.53,6.826S7.74,6.684,4.642,23.421A17.227,17.227,0,0,0,7.436,36.692C10.108,40.374,14.914,43.851,23.53,43.731Z" transform="translate(-1.013 -3.893)"/><path class="b" d="M3.447,29.963a1.742,1.742,0,0,0-1.194-.526C1.008,29.437,0,30.955,0,32.826s1.008,3.389,2.252,3.389a1.841,1.841,0,0,0,1.387-.739A18.107,18.107,0,0,1,3.447,29.963Z" transform="translate(0 -9.182)"/><path class="b" d="M56.629,25.437c-.431-1.821-1.762-3.064-2.972-2.775a1.694,1.694,0,0,0-.938.655,24.776,24.776,0,0,1,1.017,3.8,18.774,18.774,0,0,1,.251,1.932,1.72,1.72,0,0,0,1.232.21C56.429,28.969,57.061,27.258,56.629,25.437Z" transform="translate(-12.331 -7.587)"/><path class="c" d="M12.5,15.361a.764.764,0,0,1-.542-.224L8.124,11.306a.766.766,0,0,1,1.083-1.083l3.831,3.831a.766.766,0,0,1-.542,1.308Z" transform="translate(-1.848 -4.635)"/><path class="c" d="M15.965,12.127a.767.767,0,0,1-.686-.424l-2.3-4.6a.766.766,0,0,1,1.371-.686l2.3,4.6a.766.766,0,0,1-.342,1.028A.757.757,0,0,1,15.965,12.127Z" transform="translate(-3.017 -3.699)"/><path class="c" d="M20.2,10.126a.765.765,0,0,1-.726-.524l-1.532-4.6a.766.766,0,1,1,1.453-.485l1.532,4.6a.766.766,0,0,1-.484.969A.75.75,0,0,1,20.2,10.126Z" transform="translate(-4.187 -3.231)"/><path class="c" d="M25.431,9.127a.766.766,0,0,1-.755-.64l-.766-4.6a.766.766,0,0,1,1.511-.251l.766,4.6a.765.765,0,0,1-.63.881A.7.7,0,0,1,25.431,9.127Z" transform="translate(-5.59 -2.997)"/><path class="c" d="M29.666,9.127a.765.765,0,0,1-.766-.766v-4.6a.766.766,0,0,1,1.532,0v4.6A.765.765,0,0,1,29.666,9.127Z" transform="translate(-6.76 -2.997)"/><path class="c" d="M33.666,9.127a.767.767,0,0,1-.726-1.009l1.532-4.6a.766.766,0,1,1,1.453.485L34.393,8.6A.766.766,0,0,1,33.666,9.127Z" transform="translate(-7.695 -2.997)"/><path class="c" d="M37.666,10.126a.767.767,0,0,1-.726-1.009l1.532-4.6a.766.766,0,0,1,1.453.485L38.393,9.6A.766.766,0,0,1,37.666,10.126Z" transform="translate(-8.631 -3.231)"/><path class="c" d="M40.665,12.127a.765.765,0,0,1-.684-1.109l2.3-4.6a.766.766,0,1,1,1.371.686l-2.3,4.6A.767.767,0,0,1,40.665,12.127Z" transform="translate(-9.333 -3.699)"/><g transform="translate(12.258 10.726)"><path class="d" d="M16.069,24a4.6,4.6,0,1,0,9.055,0Z" transform="translate(-16 -18.635)"/><path class="d" d="M28.053,24A6.129,6.129,0,1,0,40.2,24H28.053Z" transform="translate(-18.807 -18.635)"/><path class="b" d="M20.618,19a4.6,4.6,0,0,0-4.528,3.831h9.055A4.594,4.594,0,0,0,20.618,19Z" transform="translate(-16.021 -17.466)"/><path class="b" d="M34.145,17a6.126,6.126,0,0,0-6.076,5.363H40.221A6.126,6.126,0,0,0,34.145,17Z" transform="translate(-18.823 -16.998)"/><ellipse class="e" cx="0.766" cy="0.766" rx="0.766" ry="0.766" transform="translate(4.597 6.895)"/><ellipse class="e" cx="1.149" cy="1.149" rx="1.149" ry="1.149" transform="translate(12.258 6.895)"/></g><path class="f" d="M17,38.224v.024a7.7,7.7,0,0,0,4.247,6.94,13.258,13.258,0,0,0,11.408,0,7.693,7.693,0,0,0,4.256-6.966H17Z" transform="translate(-3.976 -11.237)"/><path class="g" d="M27.892,42.682c-3.615,0-6.892.827-6.892,2.714l.029.116a7.3,7.3,0,0,0,1.153.719,13.258,13.258,0,0,0,11.408,0,7.351,7.351,0,0,0,1.18-.737l.02-.1C34.79,43.509,31.508,42.682,27.892,42.682Z" transform="translate(-4.912 -12.28)"/></svg>