<svg xmlns="http://www.w3.org/2000/svg" viewBox="0 0 2731.652 1081.157">
  <defs>
    <style>
      .cls-1 {
        fill: #606060;
      }

      .cls-2 {
        fill: #fff;
      }
    </style>
  </defs>
  <g id="Group_795" data-name="Group 795" transform="translate(-4341.226 11624.842)">
    <path id="Path_2112" data-name="Path 2112" class="cls-1" d="M2840.146,905.66c-49.985,110.235-144.821,148.776-253.962,134.723a550.069,550.069,0,0,0-164.091,2.188c-64.795,10.266-104.513-7.91-150.122-52.257-56.128,18.26-111.077,38.12-167.373,53.351-19.27,5.217-41.738-1.178-62.691-2.609-18.934-1.346-40.476-9.929-56.38-3.7-58.147,22.552-109.394,5.049-161.062-18.26-10.1-4.46-24.572-1.178-36.437,1.094-23.646,4.46-46.871,15.4-70.265,15.4-80.11,0-160.22-5.469-240.246-5.554-75.987,0-152.058,4.123-227.876,6.143-14.979,0-33.575,5.133-44.262-1.767-41.654-26.507-79.353-7.237-119.408,2.524-48.133,11.7-96.351,14.389-143.558-9.593-11.613-5.806-30.714-.673-45.1,3.618-71.359,21.206-139.688,24.235-199.77-29.2a157.532,157.532,0,0,1-17.419-20.7l-156.349,72.958a271.824,271.824,0,0,1,14.137,33.912,97.354,97.354,0,0,1-62.775,122.521,95.889,95.889,0,0,1-27.18,4.628c-82.887,3.45-166.026,2.188-249.166.589-46.871-.842-72.032-33.155-89.787-72.452v-57.221c53.94-50.574,53.351-115.789,49.311-182.267a591.316,591.316,0,0,1,0-69.086c3.787-71.274,5.975-141.876-49.227-198.508V587.072c34-69.676,101.063-90.629,167.373-109.815,52.593-15.231,106.7-38.2,161.314-2.609,5.386,3.45,15.568,1.01,23.057-.673,91.723-20.2,169.561,3.7,235.113,75.819,67.908-56.3,149.2-74.725,234.187-80.531,84.906-5.806,166.447,3.7,221.144,65.468,52.593-21.458,100.222-45.609,151.132-60.335,52.425-15.652,107.542-36.437,159.378,7.069,5.554,4.628,20.532,0,30.546-2.861,106.7-27.348,188.915,0,252.532,84.57,40.139-26.591,77.081-59.914,120.5-77.5,40.139-16.241,76.912-24.572,96.351-71.358,8.667-20.869,40.308-36.437,64.795-45.609A1235.592,1235.592,0,0,1,2190.6,321.16c61.26-12.959,106.448,26.17,109.394,89.619,1.515,40.307,0,80.783,0,123.783,98.371-58.568,200.528-75.65,308.575-62.271,99.717,12.37,152.731,63.785,170.4,163.5a123.31,123.31,0,0,1,3.534,28.274c-3.618,68.918-3.114,136.238,58.147,184.539ZM414.378,560.733l1.094-8.078c-14.137-11.192-31.556-34.585-41.906-31.724a1376.965,1376.965,0,0,0-176.8,60.5c-29.116,12.454-25.245,39.8-3.45,63.2,14.137,15.231,28.527,37.362,29.116,56.8,2.609,102.073.673,204.314.926,306.64,0,31.3-4.544,57.979-33.576,78.259-9.677,6.732-13.632,29.116-11.36,42.748,1.431,8.583,19.354,20.2,29.957,20.532,77.67,1.6,154.919,1.767,232.841-.421,11.613,0,30.462-14.137,31.977-23.9a49.98,49.98,0,0,0-17.335-39.8c-46.871-35.511-53.519-50.658-39.045-115.621A602.06,602.06,0,0,0,480.6,979.88C603.713,986.107,693,896.993,696.866,759.662c4.8-170.4-124.962-284.088-278.281-198.844C417.323,561.238,415.64,560.733,414.378,560.733Zm1638.974-18.26a94.167,94.167,0,0,1-15.568,6.648c-11.865-2.609-23.646-5.638-35.343-8.415-70.265-16.157-133.461-3.787-182.94,50.91-76.491,84.486-77.922,246.052-4.8,333.736,54.7,65.384,125.045,74.3,194.553,24.572,10.855-7.742,21.71-15.315,36.437-25.413,2.02,14.894,0,28.021,5.47,34.669,9.088,10.6,25.834,25.918,34.333,23.225A1622.476,1622.476,0,0,0,2257.581,919.8c37.278-16.577,35.006-46.955,2.693-72.284a79.856,79.856,0,0,1-24.151-42.074c-4.208-18.26-1.515-37.783-1.515-56.885V425.842c0-20.028-2.188-46.366-27.348-39.971a1304.22,1304.22,0,0,0-187.905,62.355c-25.413,11.023-24.488,39.466,1.851,59.662A297.5,297.5,0,0,1,2053.351,542.472Zm-613.7,27.348c-20.448-21.29-38.793-51.5-48.47-48.891a1380.954,1380.954,0,0,0-183.866,63.785,29.859,29.859,0,0,0-3.282,53.939c35.932,21.037,35.006,51.163,34.249,84.317-.842,39.466,2.272,79.353-2.272,118.482-2.44,20.616-18.26,39.466-26.591,59.577-6.816,16.073-18.765,34.754-15.147,48.638,2.608,9.93,27.348,19.438,42.327,19.943,59.83,2.188,119.828,1.851,179.743,0,14.221,0,39.55-8.667,40.223-15.231,1.767-17.671-5.891-36.437-12.118-54.7-5.133-14.642-18.849-28.106-19.523-42.5q-3.786-91.639-1.346-183.782c.926-34.417,25.329-50.826,55.118-34.333,19.018,10.519,39.887,32.987,43.674,53.1a512.987,512.987,0,0,1,6.227,133.8c-2.188,27.349-19.691,53.266-28.527,80.363-4.712,14.642-10.855,32.4-6.4,45.609,3.114,9.088,22.889,17.335,35.343,17.671,65.384,1.767,130.768,2.1,196.068,0,13.127-.421,32.987-12.033,36.437-22.889a45.662,45.662,0,0,0-14.474-40.812c-26.086-18.26-32.65-42.159-33.071-70.433-.757-49.059,0-98.2-2.02-147.093-5.133-121.427-101.568-184.623-216.179-142.3C1474.489,554.085,1453.788,564.1,1439.651,569.821Zm-306.387,278.45c-.421-9.761-1.515-24.319-1.6-38.877-.5-47.544.926-95.257-1.6-142.717-3.029-56.3-20.785-105.944-82.635-121.848a385.341,385.341,0,0,0-277.019,32.229c-36.437,18.26-48.554,51.583-37.7,89.619a62.441,62.441,0,0,0,31.3,38.2c9.088,3.534,27.349-10.855,39.634-20.112,25.329-19.775,46.535-46.366,74.3-61.261,33.155-18.26,61.177-4.544,69.844,24.067,10.939,35.932-1.515,59.83-38.625,71.19-27.349,8.415-55.538,13.8-82.466,22.888a245.376,245.376,0,0,0-58.989,26.76c-48.049,32.566-67.572,109.394-43.253,160.977,20.364,43.169,72.957,61.513,135.228,43a712.042,712.042,0,0,0,82.55-35.006c21.206,14.558,39.129,36.437,59.83,39.3a182.384,182.384,0,0,0,152.31-42.159c16.914-15.231,22.3-43.421,32.987-65.636Zm1584.613-1.6V809.225c0-47.544,1.094-95.341-1.431-142.8-2.861-52.761-18.26-102.157-75.229-119.071-99.717-29.452-196.572-15.82-288.127,32.061-34.754,18.26-44.6,51.5-34.08,87.515a62.231,62.231,0,0,0,31.472,37.951c9.088,3.534,27.349-10.939,39.466-20.364,24.235-19.27,44.262-44.936,70.77-59.494,24.824-13.548,56.8-18.26,71.948,18.934,14.474,35.259.421,63.2-37.447,74.809-26,7.994-52.761,13.211-78.511,21.794a264.037,264.037,0,0,0-59.493,25.582c-50.321,32.229-71.443,110.319-46.366,163.333,20.448,43.084,72.957,61.345,135.312,42.832,30.63-9.088,59.241-24.992,85.327-36.437,16.577,14.053,31.3,36.437,49.059,39.466,64.542,10.35,125.3-4.712,172.253-52.677,12.454-12.875,17.671-36.437,18.26-54.7.421-4.881-27.433-11.192-53.014-21.037Z" transform="translate(4232.226 -11760.958)"/>
    <path id="Path_2113" data-name="Path 2113" class="cls-2" d="M355.726,382.809c1.262,0,2.945.421,3.787,0,153.32-85.243,283.078,28.442,278.281,198.844C633.839,718.985,544.64,808.014,421.53,801.872a602.06,602.06,0,0,1-63.785-10.014c-14.474,64.963-7.826,80.11,39.045,115.621a49.98,49.98,0,0,1,17.335,39.8c-1.515,9.761-20.448,23.646-31.977,23.9-77.586,2.188-154.919,2.1-232.841.421-10.687,0-28.527-11.949-29.957-20.532-2.272-13.632,1.767-36.016,11.36-42.748,28.947-20.364,33.66-47.039,33.575-78.259,0-102.241,1.767-204.567-.926-306.64-.5-19.438-14.979-41.57-29.116-56.8-21.795-23.309-25.581-50.658,3.45-63.2a1376.965,1376.965,0,0,1,176.8-60.5c10.35-2.861,27.769,20.532,41.906,31.724Zm-7.153,189.925h-1.515c0,23.141-3.2,46.955,1.094,69.255,3.282,17.335,15.988,32.818,24.4,49.227,18.26-9.929,41.906-15.568,52.593-30.714,31.472-44.347,15.063-154.919-25.581-190.682A41.411,41.411,0,0,0,367.086,459.3c-8.162,2.608-16.746,17.587-17.671,27.348-2.356,28.863-.842,57.474-.842,86.169Z" transform="translate(4290.878 -11583.033)"/>
    <path id="Path_2114" data-name="Path 2114" class="cls-2" d="M597.536,484.133a283.363,283.363,0,0,0-32.061-34.585c-26.339-20.2-27.349-48.638-1.851-59.662a1318.17,1318.17,0,0,1,187.905-62.355c24.824-6.4,27.348,19.943,27.348,39.971V690.214c0,19.018-2.609,38.793,1.515,56.885a79.23,79.23,0,0,0,24.151,42.074c32.229,25.329,34.585,55.707-2.693,72.284a1622.53,1622.53,0,0,1-172.085,62.607c-8.583,2.609-25.5-12.707-34.333-23.225-5.638-6.648-3.45-19.775-5.47-34.669-14.474,10.1-25.329,17.671-36.437,25.413-69.507,49.648-140.108,40.728-194.553-24.572-72.958-87.6-71.611-249.25,4.8-333.736,49.48-54.7,112.676-67.067,182.94-50.91,11.781,2.693,23.478,5.722,35.343,8.415A96.445,96.445,0,0,0,597.536,484.133Zm-6.059,194.3h1.6c0-23.057,2.861-46.535-1.01-68.918-2.524-15.063-12.791-38.54-22.72-40.308a62.106,62.106,0,0,0-48.47,17.671c-39.045,42.916-26.086,154.919,20.448,190.43a28.543,28.543,0,0,0,49.312-21.879c2.272-25.918.757-51.752.757-77.5Z" transform="translate(5688.041 -11702.618)"/>
    <path id="Path_2115" data-name="Path 2115" class="cls-2" d="M488.337,391.925c14.137-5.974,34.838-16.073,56.211-23.982,114.7-42.411,211.13,20.869,216.179,142.3,2.1,48.975,1.262,98.034,2.019,147.093.421,28.274,6.984,52.257,33.071,70.433a45.445,45.445,0,0,1,14.474,40.812c-3.618,10.855-23.478,22.384-36.437,22.889-65.3,2.356-130.684,2.02-196.068,0-12.454,0-32.229-8.583-35.343-17.671-4.46-12.959,1.6-30.63,6.4-45.609,9.088-27.349,26.339-53.014,28.527-80.363a512.817,512.817,0,0,0-6.227-133.8c-3.7-20.112-24.572-42.664-43.674-53.1-29.789-16.493-54.192,0-55.117,34.333q-2.272,91.891,1.346,183.782c.673,14.389,14.39,27.769,19.523,42.5,6.227,17.755,13.885,36.437,12.118,54.7-.673,6.564-26,14.726-40.223,15.231-59.914,1.767-119.913,2.1-179.743,0-15.147-.5-39.634-10.014-42.327-19.943-3.618-13.969,8.331-32.65,15.147-48.638,8.5-20.112,24.151-39.045,26.591-59.577,4.544-39.045,1.431-78.932,2.272-118.482.757-33.155,1.6-63.28-34.249-84.318a29.793,29.793,0,0,1-11.781-40.56,30.328,30.328,0,0,1,15.063-13.38,1360.931,1360.931,0,0,1,183.866-63.785C449.544,340.678,467.889,370.887,488.337,391.925Z" transform="translate(5183.541 -11583.062)"/>
    <path id="Path_2116" data-name="Path 2116" class="cls-2" d="M600.34,660.042,654.2,679.985c-10.687,22.216-16.073,50.405-32.987,65.636A182.3,182.3,0,0,1,468.9,788.369c-20.7-3.114-38.54-24.74-59.83-39.3a718.3,718.3,0,0,1-82.55,35.006c-62.355,18.26-114.948,0-135.228-43-24.235-51.668-4.712-128.412,43.253-160.977a240.732,240.732,0,0,1,58.989-26.76c27.349-9.088,55.2-14.474,82.466-22.888,37.11-11.36,49.564-35.259,38.625-71.19-8.667-28.611-36.437-41.906-69.844-24.067-27.349,14.894-48.975,41.486-74.3,61.261-12.033,9.088-30.209,23.73-39.634,20.112a62.717,62.717,0,0,1-31.3-38.2c-10.855-38.035,1.262-71.19,37.7-89.619a385.341,385.341,0,0,1,277.019-32.229c61.85,15.988,79.689,65.552,82.635,121.848,2.525,47.46,1.094,95.173,1.6,142.717C598.741,635.723,599.835,650.28,600.34,660.042ZM410.162,602.484c-44.347,5.554-70.265,27.769-61.092,55.286a48.4,48.4,0,0,0,36.437,26.086c26.423.084,37.026-37.7,24.656-81.372Z" transform="translate(4765.15 -11572.477)"/>
    <path id="Path_2117" data-name="Path 2117" class="cls-2" d="M786.936,658.861c25.581,9.846,53.519,16.157,53.266,21.29-.757,18.765-5.891,41.99-18.26,54.7-46.955,47.965-107.711,63.112-172.253,52.677-17.755-2.945-32.481-25.413-49.059-39.466-26.086,11.276-54.7,27.348-85.327,36.437-62.355,18.26-114.948,0-135.312-42.832-25.077-53.014-3.955-131.1,46.366-163.333a260.3,260.3,0,0,1,59.493-25.582c25.666-8.583,52.509-13.8,78.511-21.794,37.951-11.7,51.92-39.55,37.447-74.809-15.147-37.026-47.124-32.566-71.948-18.934-26.423,14.558-46.45,40.308-70.77,59.494-11.865,9.088-29.957,23.9-39.466,20.364a62.323,62.323,0,0,1-31.472-37.951c-10.519-36.016-.673-69.339,34.08-87.515,91.134-47.965,188.41-61.513,288.127-32.061,57.137,16.83,72.368,66.225,75.229,119.071,2.524,47.46,1.178,95.257,1.431,142.8C787.02,635.888,786.936,650.446,786.936,658.861ZM602.228,605.342c-41.57-1.094-70.517,18.934-65.132,48.049a48.761,48.761,0,0,0,32.061,31.388C596.338,688.65,608.287,657.935,602.228,605.342Z" transform="translate(6163.167 -11572.895)"/>
    <path id="Path_2118" data-name="Path 2118" class="cls-1" d="M146.784,469.847c0-28.611-1.515-57.221.842-85.664.926-10.1,9.088-25.077,17.671-27.349a41.206,41.206,0,0,1,32.482,10.519c40.644,35.763,57.053,146.251,25.581,190.682-10.687,15.147-34.669,20.785-52.593,30.714-8.5-16.409-21.121-31.893-24.4-49.227-4.292-22.3-1.094-46.114-1.094-69.255Z" transform="translate(4492.667 -11480.063)"/>
    <path id="Path_2119" data-name="Path 2119" class="cls-1" d="M421.82,464.738c0,25.665,1.515,51.583-.842,77a28.524,28.524,0,0,1-49.311,21.879c-46.45-35.259-59.409-147.513-20.448-190.43a62.216,62.216,0,0,1,48.47-17.671c9.93,1.767,20.112,25.245,22.72,40.308,3.787,22.3,1.01,45.609,1.01,68.918Z" transform="translate(5857.615 -11489.344)"/>
    <path id="Path_2120" data-name="Path 2120" class="cls-1" d="M293.749,372.36c18.681,68.413,2.525,127.57-37.194,127.57-19.1,0-49.059-22.131-54.7-40.812C187.721,416.033,226.767,381.448,293.749,372.36Z" transform="translate(4899.403 -11362.97)"/>
    <path id="Path_2121" data-name="Path 2121" class="cls-1" d="M455.038,375.137c5.974,52.593-6.311,83.308-33.071,79.353A48.586,48.586,0,0,1,389.906,423.1C384.521,394.071,413.552,374.043,455.038,375.137Z" transform="translate(6310.358 -11342.689)"/>
    <path id="Path_2122" data-name="Path 2122" class="cls-1" d="M326.195,473.145v1.01a80.263,80.263,0,0,1-25.076,63.028,98.471,98.471,0,0,1-70.1,24.319,94.8,94.8,0,0,1-72.368-30.042,108.745,108.745,0,0,1-28.022-76.912V405.994a109.862,109.862,0,0,1,27.685-76.913,93.4,93.4,0,0,1,71.7-30.209,101.265,101.265,0,0,1,71.358,23.814A79.883,79.883,0,0,1,326.7,386.555v1.01H285.382a55.355,55.355,0,0,0-13.969-40.139A54.637,54.637,0,0,0,230.1,333.037a48.51,48.51,0,0,0-41.317,20.7,84.47,84.47,0,0,0-15.315,51.668V454.3a84.32,84.32,0,0,0,15.568,52.341,50.679,50.679,0,0,0,42.411,20.7A53.935,53.935,0,0,0,271.666,513.2,55.566,55.566,0,0,0,285.3,473.061Z" transform="translate(4392.104 -11909.156)"/>
    <path id="Path_2123" data-name="Path 2123" class="cls-1" d="M200.1,570.559H157.44V296.99H200.1Z" transform="translate(4591.405 -11921.832)"/>
    <path id="Path_2124" data-name="Path 2124" class="cls-1" d="M288.479,499.977a138.185,138.185,0,0,1-3.7-14.053,93.644,93.644,0,0,1-2.1-13.632,74.743,74.743,0,0,1-23.057,22.3,58.322,58.322,0,0,1-32.061,9,63.062,63.062,0,0,1-45.44-15.231,55.592,55.592,0,0,1-15.9-41.99,49.843,49.843,0,0,1,21.795-42.916,105.04,105.04,0,0,1,61.177-15.315h33.155V371.481a31.009,31.009,0,0,0-8.751-23.393,41.465,41.465,0,0,0-48.3-1.346A22.049,22.049,0,0,0,216.7,364.75H175.383v-1.01a46.833,46.833,0,0,1,20.2-39.8A85.05,85.05,0,0,1,251.117,306.6a80.966,80.966,0,0,1,53.435,16.83,59.378,59.378,0,0,1,20.7,48.386v84.317a168.277,168.277,0,0,0,1.515,22.552,129.628,129.628,0,0,0,5.049,21.206ZM236.223,469.01a53.537,53.537,0,0,0,29.031-8.163,40.479,40.479,0,0,0,17.166-18.429V414.4H248.509a42.872,42.872,0,0,0-29.031,9.172,27.739,27.739,0,0,0-10.35,21.626,22.384,22.384,0,0,0,7.069,17.335,29.515,29.515,0,0,0,20.027,6.9Z" transform="translate(4655.844 -11851.25)"/>
    <path id="Path_2125" data-name="Path 2125" class="cls-1" d="M301.23,448.5a19.989,19.989,0,0,0-8.5-16.325,83.928,83.928,0,0,0-30.967-11.36,128.132,128.132,0,0,1-51.668-20.7,42.572,42.572,0,0,1-17.5-35.932,51.455,51.455,0,0,1,20.7-40.728,80.212,80.212,0,0,1,53.1-16.83A82.932,82.932,0,0,1,321.51,323.7a50.7,50.7,0,0,1,19.607,42.411v1.01H300.3a27.231,27.231,0,0,0-9-20.2,33.891,33.891,0,0,0-24.487-8.331,35.026,35.026,0,0,0-23.478,6.9,21.125,21.125,0,0,0-8.162,16.914,19.074,19.074,0,0,0,7.658,15.82,81.271,81.271,0,0,0,30.967,10.35,131.909,131.909,0,0,1,53.014,20.7,44.014,44.014,0,0,1,17.251,36.6,49.566,49.566,0,0,1-20.7,41.317,90.062,90.062,0,0,1-55.707,15.9,84.974,84.974,0,0,1-58.4-18.934,53.611,53.611,0,0,1-20.7-43.505v-1.01H228.1a28.8,28.8,0,0,0,11.865,24.067,48.36,48.36,0,0,0,27.349,7.573,44.229,44.229,0,0,0,25.413-6.311A19.445,19.445,0,0,0,301.23,448.5Z" transform="translate(4821.995 -11851.353)"/>
    <path id="Path_2126" data-name="Path 2126" class="cls-1" d="M323.028,448.5a20.172,20.172,0,0,0-8.331-16.325,83.928,83.928,0,0,0-30.967-11.36,128.132,128.132,0,0,1-51.668-20.7,42.572,42.572,0,0,1-17.5-35.932,51.584,51.584,0,0,1,20.2-40.728,80.212,80.212,0,0,1,53.1-16.83,83.156,83.156,0,0,1,55.2,17.082,50.4,50.4,0,0,1,19.523,42.411v1.01H321.261a27.287,27.287,0,0,0-8.92-20.2,41.35,41.35,0,0,0-48.049-1.431,21.671,21.671,0,0,0-8.078,16.914,18.638,18.638,0,0,0,7.658,15.82,81.275,81.275,0,0,0,30.967,10.35,131.435,131.435,0,0,1,53.014,20.7,43.789,43.789,0,0,1,17.251,36.6,49.566,49.566,0,0,1-20.7,41.317,90.062,90.062,0,0,1-55.707,15.9,84.974,84.974,0,0,1-58.4-18.934,53.15,53.15,0,0,1-20.7-43.505v-1.01h39.55a28.358,28.358,0,0,0,12.118,24.572,48.273,48.273,0,0,0,27.264,7.573,44.229,44.229,0,0,0,25.413-6.311A19.942,19.942,0,0,0,323.028,448.5Z" transform="translate(4978.004 -11851.353)"/>
    <path id="Path_2127" data-name="Path 2127" class="cls-1" d="M325.945,348.453l-18.176-.757a38.243,38.243,0,0,0-20.7,5.3,34.767,34.767,0,0,0-12.959,14.895V499.753H231.53V310h38.877l2.861,27.517a60.747,60.747,0,0,1,18.513-22.72,43.16,43.16,0,0,1,26.086-8.247,41.009,41.009,0,0,1,7.153.589c2.272,0,4.208.926,6.059,1.431Z" transform="translate(5140.776 -11851.025)"/>
    <path id="Path_2128" data-name="Path 2128" class="cls-1" d="M244.385,403.15a103.462,103.462,0,0,1,23.141-69.423,88.516,88.516,0,0,1,125.13-2.524l2.524,2.524a102.679,102.679,0,0,1,23.394,69.423v3.7a103.547,103.547,0,0,1-23.394,69.76,89.191,89.191,0,0,1-126.14,1.515l-1.515-1.515a103.037,103.037,0,0,1-23.141-69.591Zm42.58,3.619a85,85,0,0,0,10.855,45.188,41.327,41.327,0,0,0,57.726,9.256,43.88,43.88,0,0,0,9.257-9.256,81.844,81.844,0,0,0,11.276-45.188v-3.787A81.049,81.049,0,0,0,364.8,358.3a40.519,40.519,0,0,0-66.983,0,84.415,84.415,0,0,0-10.855,44.683v3.787Z" transform="translate(5235.38 -11851.026)"/>
    <path id="Path_2129" data-name="Path 2129" class="cls-1" d="M267.525,403.15a103.462,103.462,0,0,1,23.141-69.423A88.516,88.516,0,0,1,415.8,331.2l2.524,2.524a102.536,102.536,0,0,1,23.393,69.423v3.7a102.7,102.7,0,0,1-23.393,69.76,79.357,79.357,0,0,1-63.533,26.76,80.609,80.609,0,0,1-64.122-27.012,103.037,103.037,0,0,1-23.141-69.591Zm42.664,3.619a84.583,84.583,0,0,0,10.35,45.188,41.327,41.327,0,0,0,57.726,9.256,43.873,43.873,0,0,0,9.256-9.256A82.558,82.558,0,0,0,398.8,406.768v-3.787A81.763,81.763,0,0,0,387.522,358.3a40.518,40.518,0,0,0-66.983,0,84.373,84.373,0,0,0-10.35,44.683Z" transform="translate(5406.961 -11851.026)"/>
    <path id="Path_2130" data-name="Path 2130" class="cls-1" d="M330.634,310.419l2.272,24.74a64.456,64.456,0,0,1,23.394-20.7,69.064,69.064,0,0,1,32.481-7.321,58.688,58.688,0,0,1,31.808,8.331,51.448,51.448,0,0,1,20.448,24.824,65.352,65.352,0,0,1,23.141-24.74,62.149,62.149,0,0,1,33.575-9,56.013,56.013,0,0,1,45.188,19.523q16.535,19.564,16.662,59.409V499.755H516.519V385.564a53.254,53.254,0,0,0-8.247-34,31.058,31.058,0,0,0-24.992-10.351,36.347,36.347,0,0,0-23.141,7.321A40.377,40.377,0,0,0,446.507,368.4v4.544a25.939,25.939,0,0,1,0,3.618V499.586H403.928V385.564a52.618,52.618,0,0,0-8.5-33.575,31.058,31.058,0,0,0-24.992-10.35,44.615,44.615,0,0,0-22.047,4.965,37.244,37.244,0,0,0-14.305,14.137V499.923H291.42V310.25h39.214Z" transform="translate(5584.855 -11851.448)"/>
  </g>
</svg>
