<svg xmlns="http://www.w3.org/2000/svg" width="512" height="512" viewBox="0 0 512 512">
  <path id="presentation" d="M462.77,131.945A79.939,79.939,0,0,0,402,0H0V30H30V301H208v48.578a45,45,0,1,0,30,0V301h54v42h31.672l20,169H460.328l20-169H512V195a65.111,65.111,0,0,0-49.23-63.055ZM402,30a50,50,0,1,1-50,50,50.056,50.056,0,0,1,50-50ZM223,407a15,15,0,1,1,15-15A15.019,15.019,0,0,1,223,407Zm69-212v76H60V30H339.617a79.767,79.767,0,0,0,1.613,101.945A65.111,65.111,0,0,0,292,195ZM433.672,482H370.329L353.879,343h96.242ZM482,313H322V195a35.037,35.037,0,0,1,35-35h90a35.037,35.037,0,0,1,35,35Zm0,0" transform="translate(0)" fill="#fff"/>
</svg>
