<?xml version="1.0" encoding="iso-8859-1"?>
<!-- Generator: Adobe Illustrator 19.0.0, SVG Export Plug-In . SVG Version: 6.00 Build 0)  -->
<svg version="1.1" id="Layer_1" xmlns="http://www.w3.org/2000/svg" xmlns:xlink="http://www.w3.org/1999/xlink" x="0px" y="0px"
	 viewBox="0 0 512 512" style="enable-background:new 0 0 512 512;" xml:space="preserve">
<path style="fill:#E6E6E6;" d="M390.679,254.864c67.009,0,121.321,54.324,121.321,121.321c0,67.009-54.312,121.321-121.321,121.321
	s-121.321-54.312-121.321-121.321C269.358,309.188,323.67,254.864,390.679,254.864z"/>
<path style="fill:#F95428;" d="M121.321,254.864c67.009,0,121.332,54.324,121.332,121.321c0,67.009-54.324,121.321-121.332,121.321
	C54.324,497.505,0,443.193,0,376.185C0,309.188,54.324,254.864,121.321,254.864z"/>
<path style="fill:#70E5CF;" d="M256.006,14.495c67.009,0,121.321,54.312,121.321,121.321s-54.312,121.321-121.321,121.321
	s-121.321-54.312-121.321-121.321S188.997,14.495,256.006,14.495z"/>
<path style="fill:#CCCCCC;" d="M293.955,376.185c0-62.846,47.79-114.539,109.022-120.704c-4.044-0.406-8.146-0.617-12.298-0.617
	c-67.009,0-121.321,54.324-121.321,121.321c0,67.009,54.312,121.321,121.321,121.321c4.152,0,8.254-0.21,12.298-0.617
	C341.746,490.725,293.955,439.041,293.955,376.185z"/>
<path style="fill:#E54728;" d="M24.597,376.185c0-62.846,47.801-114.539,109.024-120.704c-4.044-0.408-8.147-0.617-12.3-0.617
	C54.324,254.864,0,309.188,0,376.185c0,67.009,54.324,121.321,121.321,121.321c4.152,0,8.255-0.21,12.3-0.617
	C72.398,490.725,24.597,439.041,24.597,376.185z"/>
<path style="fill:#35D8B9;" d="M159.282,135.815c0-62.858,47.79-114.541,109.022-120.704c-4.044-0.408-8.146-0.617-12.298-0.617
	c-67.009,0-121.321,54.312-121.321,121.321s54.312,121.321,121.321,121.321c4.152,0,8.254-0.21,12.298-0.617
	C207.072,250.356,159.282,198.672,159.282,135.815z"/>
<g>
	<path style="fill:#4D4D4D;" d="M285.961,167.04c-16.517,16.518-43.397,16.518-59.913,0c-3.432-3.431-8.993-3.431-12.424,0
		c-3.431,3.431-3.431,8.993,0,12.423c11.686,11.685,27.033,17.527,42.381,17.527s30.696-5.842,42.381-17.527
		c3.431-3.431,3.431-8.993,0-12.423C294.954,163.61,289.393,163.61,285.961,167.04z"/>
	<path style="fill:#4D4D4D;" d="M78.944,416.5c-3.431,3.431-3.431,8.993,0,12.423c3.432,3.431,8.993,3.431,12.424,0
		c16.519-16.52,43.399-16.519,59.914,0c1.716,1.715,3.965,2.573,6.212,2.573s4.497-0.857,6.212-2.573
		c3.431-3.431,3.431-8.993,0-12.423C140.336,393.131,102.314,393.129,78.944,416.5z"/>
	<path style="fill:#4D4D4D;" d="M426.847,406.436h-72.339c-4.853,0-8.785,3.933-8.785,8.785c0,4.851,3.932,8.785,8.785,8.785h72.339
		c4.853,0,8.785-3.933,8.785-8.785C435.632,410.37,431.7,406.436,426.847,406.436z"/>
	<circle style="fill:#4D4D4D;" cx="437.94" cy="354.58" r="8.785"/>
	<circle style="fill:#4D4D4D;" cx="343.418" cy="354.58" r="8.785"/>
	<circle style="fill:#4D4D4D;" cx="168.582" cy="354.58" r="8.785"/>
	<circle style="fill:#4D4D4D;" cx="74.06" cy="354.58" r="8.785"/>
	<circle style="fill:#4D4D4D;" cx="208.745" cy="105.356" r="8.785"/>
	<circle style="fill:#4D4D4D;" cx="303.267" cy="105.356" r="8.785"/>
</g>
<g>
</g>
<g>
</g>
<g>
</g>
<g>
</g>
<g>
</g>
<g>
</g>
<g>
</g>
<g>
</g>
<g>
</g>
<g>
</g>
<g>
</g>
<g>
</g>
<g>
</g>
<g>
</g>
<g>
</g>
</svg>
