<svg xmlns="http://www.w3.org/2000/svg" width="40.361" height="40.361" viewBox="0 0 40.361 40.361"><defs><style>.a{fill:#53ceea;}.b{fill:#ebae7f;}.c{fill:#b88158;}.d{fill:#ffcba8;}.e{fill:#ffd654;}.f{fill:#73788c;}.g{fill:#414b50;}</style></defs><g transform="translate(-177 -454)"><ellipse class="a" cx="20.18" cy="20.18" rx="20.18" ry="20.18" transform="translate(177 454)"/><g transform="translate(181.73 460.228)"><path class="b" d="M3.27,245.111a3.27,3.27,0,1,0,3.27,3.27A3.274,3.274,0,0,0,3.27,245.111Z" transform="translate(0 -231.011)"/><path class="c" d="M409.848,245.111a3.27,3.27,0,1,0,3.27,3.27A3.274,3.274,0,0,0,409.848,245.111Z" transform="translate(-381.352 -231.011)"/><path class="b" d="M66.533,78.124h0A12.547,12.547,0,0,0,54,90.657v3.42a8.216,8.216,0,0,0,8.188,8.21h0a6.658,6.658,0,0,0,4.386,1.649,6.58,6.58,0,0,0,4.386-1.666,8.2,8.2,0,0,0,8.106-8.193v-3.42A12.547,12.547,0,0,0,66.533,78.124Z" transform="translate(-50.65 -74.385)"/><path class="d" d="M66.533,78.124h0A12.547,12.547,0,0,0,54,90.657v3.42a8.216,8.216,0,0,0,8.188,8.21h0a6.658,6.658,0,0,0,4.386,1.649Z" transform="translate(-50.65 -74.385)"/><g transform="translate(9.368 2.362)"><path class="e" d="M154.317,67.475a.931.931,0,0,0-1.3-.216,4.851,4.851,0,0,0-2.026,3.937.931.931,0,1,0,1.861,0,2.986,2.986,0,0,1,1.247-2.423A.931.931,0,0,0,154.317,67.475Z" transform="translate(-150.993 -66.393)"/><path class="e" d="M201.434,56.731a.931.931,0,0,0-1.046-.8,4.85,4.85,0,0,0-4.192,4.794.931.931,0,1,0,1.861,0,2.983,2.983,0,0,1,2.577-2.949A.931.931,0,0,0,201.434,56.731Z" transform="translate(-193.391 -55.923)"/></g><path class="f" d="M151.6,251.434a1.341,1.341,0,0,1-1.3,0,.931.931,0,0,0-.91,1.624,3.214,3.214,0,0,0,3.124,0,.931.931,0,0,0-.91-1.624Z" transform="translate(-139.675 -236.83)"/><g transform="translate(13.154 14.485)"><path class="g" d="M301.358,251.791a.931.931,0,0,0-1.267-.357,1.341,1.341,0,0,1-1.3,0,.931.931,0,0,0-.91,1.624,3.214,3.214,0,0,0,3.124,0A.93.93,0,0,0,301.358,251.791Z" transform="translate(-292.103 -251.315)"/><path class="g" d="M217.461,323.161a2.3,2.3,0,0,0-2.3-2.3H214.3a2.3,2.3,0,0,0-2.3,2.3v.856a2.3,2.3,0,0,0,2.3,2.3h.856a2.3,2.3,0,0,0,2.3-2.3Z" transform="translate(-212.001 -316.544)"/></g><g transform="translate(13.154)"><path class="f" d="M214.755,320.858H214.3a2.3,2.3,0,0,0-2.3,2.3v.856a2.3,2.3,0,0,0,2.3,2.3h.456Z" transform="translate(-212.001 -302.058)"/><path class="f" d="M366.387,20.65h-.2l.846-1.349a.942.942,0,0,0-.787-1.443H364.5a.931.931,0,1,0,0,1.861h.059l-.846,1.34a.953.953,0,0,0-.029.959.942.942,0,0,0,.815.494h1.891a.931.931,0,0,0,0-1.861Z" transform="translate(-354.161 -17.858)"/><path class="f" d="M431.87,83.588h-.2l.846-1.323a.912.912,0,0,0,.029-.936.921.921,0,0,0-.815-.471h-1.749a.931.931,0,0,0,0,1.861h.059l-.846,1.335a.9.9,0,0,0-.029.93.916.916,0,0,0,.815.465h1.891a.931.931,0,1,0,0-1.861Z" transform="translate(-415.581 -76.949)"/></g></g></g></svg>