<svg height="480pt" viewBox="-54 0 480 480.2853" width="480pt" xmlns="http://www.w3.org/2000/svg"><path d="m206.957031 231.785156h33.09375c45.695313 0 82.738281-37.042968 82.738281-82.738281v-66.1875h33.09375v66.1875c-.070312 63.945313-51.890624 115.761719-115.832031 115.835937h-33.09375zm0 0" fill="#aabece"/><path d="m157.3125 231.785156h-33.09375c-45.695312 0-82.738281-37.042968-82.738281-82.738281v-66.1875h-33.097657v66.1875c.074219 63.945313 51.890626 115.761719 115.835938 115.835937h33.09375zm0 0" fill="#aabece"/><path d="m157.3125 215.238281h49.644531v66.191407h-49.644531zm0 0" fill="#5a6470"/><path d="m49.753906 24.941406c.066406-13.707031-10.992187-24.8749998-24.699218-24.941406-13.710938-.0664062-24.875 10.992188-24.945313 24.699219-.0351562 7.105469 2.980469 13.886719 8.273437 18.621093v39.539063h33.097657v-39.539063c5.25-4.667968 8.257812-11.351562 8.273437-18.378906zm0 0" fill="#394d5c"/><path d="m364.15625 24.941406c.066406-13.707031-10.992188-24.8749998-24.699219-24.941406s-24.875 10.992188-24.941406 24.699219c-.035156 7.105469 2.976563 13.886719 8.273437 18.621093v39.539063h33.09375v-39.539063c5.25-4.667968 8.261719-11.351562 8.273438-18.378906zm0 0" fill="#394d5c"/><path d="m297.96875 380.714844v57.917968c0 4.566407-3.707031 8.273438-8.277344 8.273438h-82.734375c-4.570312 0-8.277343-3.703125-8.277343-8.273438v-157.203124h-33.09375v165.476562c0 18.277344 14.816406 33.09375 33.09375 33.09375h99.285156c18.28125 0 33.097656-14.816406 33.097656-33.09375v-66.191406zm0 0" fill="#aabece"/><path d="m364.15625 331.070312c0 27.417969-22.226562 49.644532-49.640625 49.644532-27.417969 0-49.644531-22.226563-49.644531-49.644532 0-27.414062 22.226562-49.640624 49.644531-49.640624 27.414063 0 49.640625 22.226562 49.640625 49.640624zm0 0" fill="#5a6470"/><path d="m314.515625 388.988281c-31.988281 0-57.917969-25.929687-57.917969-57.917969 0-31.984374 25.929688-57.914062 57.917969-57.914062 31.984375 0 57.914063 25.929688 57.914063 57.914062-.035157 31.972657-25.945313 57.882813-57.914063 57.917969zm0-99.285156c-22.847656 0-41.371094 18.519531-41.371094 41.367187 0 22.847657 18.523438 41.371094 41.371094 41.371094s41.367187-18.523437 41.367187-41.371094c-.027343-22.835937-18.53125-41.339843-41.367187-41.367187zm0 0" fill="#5a6470"/><g fill="#aabece"><path d="m331.0625 331.070312c0 9.140626-7.410156 16.546876-16.546875 16.546876-9.140625 0-16.546875-7.40625-16.546875-16.546876 0-9.136718 7.40625-16.546874 16.546875-16.546874 9.136719 0 16.546875 7.410156 16.546875 16.546874zm0 0"/><path d="m314.515625 355.894531c-13.710937 0-24.824219-11.113281-24.824219-24.824219 0-13.707031 11.113282-24.820312 24.824219-24.820312 13.707031 0 24.820313 11.113281 24.820313 24.820312-.015626 13.703126-11.121094 24.808594-24.820313 24.824219zm0-33.097656c-4.570313 0-8.277344 3.707031-8.277344 8.277344 0 4.566406 3.707031 8.273437 8.277344 8.273437 4.566406 0 8.273437-3.703125 8.273437-8.273437-.007812-4.570313-3.707031-8.269531-8.273437-8.277344zm0 0"/></g></svg>