<?xml version="1.0"?>
<svg xmlns="http://www.w3.org/2000/svg" height="512px" viewBox="-29 0 512 512" width="512px"><path d="m318.199219 250.742188c4.140625 0 7.5-3.355469 7.5-7.5v-17.707032c0-4.140625-3.359375-7.5-7.5-7.5s-7.5 3.359375-7.5 7.5v17.707032c0 4.144531 3.359375 7.5 7.5 7.5zm0 0" fill="#FFFFFF"/><path d="m330.257812 261.769531h-24.117187c-4.144531 0-7.5 3.359375-7.5 7.5 0 4.144531 3.355469 7.5 7.5 7.5h24.117187c4.144532 0 7.5-3.355469 7.5-7.5 0-4.140625-3.355468-7.5-7.5-7.5zm0 0" fill="#FFFFFF"/><path d="m136.054688 250.742188c4.140624 0 7.5-3.355469 7.5-7.5v-17.707032c0-4.140625-3.359376-7.5-7.5-7.5-4.144532 0-7.5 3.359375-7.5 7.5v17.707032c0 4.144531 3.355468 7.5 7.5 7.5zm0 0" fill="#FFFFFF"/><path d="m148.113281 261.769531h-24.121093c-4.140626 0-7.5 3.359375-7.5 7.5 0 4.144531 3.359374 7.5 7.5 7.5h24.121093c4.140625 0 7.5-3.355469 7.5-7.5 0-4.140625-3.359375-7.5-7.5-7.5zm0 0" fill="#FFFFFF"/><path d="m248.351562 255.417969c-3.117187-2.726563-7.855468-2.410157-10.582031.710937-2.578125 2.949219-6.457031 4.640625-10.644531 4.640625-4.183594 0-8.0625-1.691406-10.640625-4.640625-2.726563-3.121094-7.464844-3.4375-10.582031-.710937-3.121094 2.726562-3.4375 7.464843-.710938 10.582031 5.425782 6.210938 13.421875 9.769531 21.933594 9.769531 8.515625 0 16.511719-3.558593 21.9375-9.769531 2.726562-3.117188 2.40625-7.855469-.710938-10.582031zm0 0" fill="#FFFFFF"/><path d="m342.144531 430.375c4.140625 0 7.5-3.359375 7.5-7.5v-33.402344h33.402344c4.140625 0 7.5-3.359375 7.5-7.5 0-4.144531-3.359375-7.5-7.5-7.5h-33.402344v-33.40625c0-4.140625-3.359375-7.5-7.5-7.5-4.144531 0-7.5 3.359375-7.5 7.5v33.40625h-33.40625c-4.140625 0-7.5 3.355469-7.5 7.5 0 4.140625 3.359375 7.5 7.5 7.5h33.40625v33.402344c0 4.140625 3.355469 7.5 7.5 7.5zm0 0" fill="#FFFFFF"/><path d="m405.042969 293.679688c27.132812 0 49.207031-22.074219 49.207031-49.210938 0-7.839844-1.847656-15.257812-5.113281-21.84375.175781-12.910156-5.261719-25.039062-14.765625-33.417969 6.371094-10.714843 7.871094-23.601562 3.910156-35.792969-3.960938-12.191406-12.75-21.734374-24.203125-26.65625 2.5625-11.472656.417969-23.566406-6.183594-33.578124-7.390625-11.203126-19.285156-18.308594-32.386719-19.53125-.855468-9.390626-4.699218-18.15625-11.195312-25.269532-8.351562-9.144531-20.15625-14.390625-32.386719-14.390625-3.21875 0-6.40625.359375-9.542969 1.066407-6.832031-15.851563-22.4375-26.359376-40.320312-26.359376-7.921875 0-15.445312 2.078126-22.121094 6.066407-8.21875-9.359375-20.003906-14.761719-32.8125-14.761719-12.820312 0-24.613281 5.410156-32.832031 14.78125-6.6875-3.960938-14.3125-6.085938-22.109375-6.085938-17.878906 0-33.484375 10.507813-40.316406 26.359376-3.136719-.707032-6.328125-1.066407-9.546875-1.066407-12.226563 0-24.035157 5.246094-32.386719 14.390625-6.492188 7.109375-10.339844 15.878906-11.191406 25.269532-13.101563 1.222656-25 8.328124-32.386719 19.53125-6.605469 10.011718-8.746094 22.105468-6.183594 33.578124-11.457031 4.921876-20.246093 14.464844-24.207031 26.65625-3.960938 12.191407-2.460938 25.082032 3.914062 35.792969-9.507812 8.378907-14.941406 20.507813-14.765624 33.417969-3.269532 6.585938-5.117188 14.003906-5.117188 21.847656 0 27.132813 22.074219 49.207032 49.210938 49.207032 1.585937 0 3.171874-.097657 4.757812-.25 14.609375 38.355468 40.457031 70.765624 73.253906 92.710937-6.824218 6.496094-17.027344 17.5-26.570312 32.792969-2.191406 3.511718-1.121094 8.140625 2.394531 10.332031 3.511719 2.191406 8.140625 1.121094 10.332031-2.394531 10.261719-16.445313 21.480469-27.519532 27.128906-32.5625 5.824219 3.210937 11.8125 6.066406 17.917969 8.605468 3.300781 1.371094 6.636719 2.648438 10.011719 3.828126 5.699219 27.527343 30.125 47.746093 58.683594 47.746093 16.507812 0 32.023437-6.738281 43.226562-18.417969 4.996094 6.613282 10.890625 12.570313 17.492188 17.582032 16.890625 12.820312 37.410156 18.777344 58.488281 18.148437.054687 0 .105469-.003906.15625-.003906 4.34375-.210937 8.605469-.730469 12.761719-1.535156 2.125 8.734375 3.425781 17.683593 3.886718 26.738281h-272.015624c.75-14.785156 3.738281-29.242188 8.902343-43.074219 1.449219-3.878906-.523437-8.199219-4.402343-9.648437-3.882813-1.449219-8.203126.523437-9.648438 4.402344-6.664062 17.847656-10.042969 36.625-10.042969 55.820312 0 4.140625 3.359375 7.5 7.5 7.5h287.402344c4.140625 0 7.5-3.359375 7.5-7.5 0-12.992188-1.574219-25.84375-4.652344-38.308594 34.082031-12.804687 58.398438-45.722656 58.398438-84.222656 0-8.082031-1.097657-16.152344-3.257813-23.980469-1.101562-3.992187-5.234375-6.335937-9.226562-5.234375-3.992188 1.101563-6.335938 5.234375-5.234375 9.226563 1.804687 6.53125 2.71875 13.253906 2.71875 19.988281 0 40.597656-34.359375 74.933594-74.929688 74.933594-40.621093 0-74.933593-34.332032-74.933593-74.933594 0-41.316406 33.613281-74.929688 74.933593-74.929688 2.902344 0 6.125.191407 9.050781.558594 20.390626 2.507813 39.164063 13.394532 51.453126 30.1875 2.445312 3.34375 7.136718 4.070313 10.480468 1.621094 3.34375-2.445312 4.070313-7.136719 1.625-10.480469-5.851562-7.992187-12.929687-14.871093-20.867187-20.449219 2.34375-4.917968 4.480469-9.941406 6.414062-15.046874 1.578125.152343 3.160157.25 4.742188.25zm.242187-15c4.875-16.601563 7.59375-33.785157 8.128906-51.273438.160157-5.21875.140626-10.820312-.265624-16.179688 3.699218.894532 7.246093 2.375 10.433593 4.464844 9.417969 6.09375 15.667969 16.714844 15.667969 28.777344 0 18.78125-15.214844 34.078125-33.964844 34.210938zm-375.050781-120.628907c3.167969-9.742187 11.015625-16.910156 21.003906-19.183593 4.496094-1.019532 7.046875-6.023438 5.230469-10.265626-3.878906-9.058593-3-18.957031 2.410156-27.167968 5.863282-8.886719 16.023438-13.816406 26.660156-12.847656 4.597657.417968 8.566407-3.558594 8.148438-8.148438-.742188-8.167969 1.859375-15.960938 7.324219-21.945312 5.519531-6.039063 13.285156-9.503907 21.3125-9.503907 3.871093 0 7.699219.800781 11.378906 2.375 4.257813 1.824219 9.246094-.726562 10.269531-5.230469 3.003906-13.210937 14.605469-22.4375 28.214844-22.4375 6.96875 0 13.476562 2.472657 18.828125 7.152344 3.472656 3.042969 9.019531 2.160156 11.378906-1.800781 5.246094-8.796875 14.492188-14.046875 24.734375-14.046875 10.238282 0 19.484375 5.25 24.730469 14.046875 2.363281 3.964844 7.90625 4.84375 11.378906 1.804687 5.347657-4.679687 11.859375-7.15625 18.824219-7.15625 13.613281 0 25.214844 9.226563 28.21875 22.441407 1.023438 4.496093 6.015625 7.050781 10.265625 5.230469 3.683594-1.578126 7.511719-2.378907 11.382813-2.378907 8.023437 0 15.792968 3.464844 21.308593 9.507813 5.464844 5.984375 8.066407 13.777344 7.328125 21.941406-.417968 4.597656 3.550782 8.5625 8.144532 8.148438 10.644531-.964844 20.796874 3.960937 26.660156 12.851562 5.414062 8.207031 6.292968 18.109375 2.414062 27.164062-1.816406 4.246094.746094 9.25 5.230469 10.269532 9.988281 2.269531 17.839844 9.441406 21.003906 19.179687 3.164063 9.738281 1.027344 20.15625-5.71875 27.859375-1.464843 1.675782-2.109375 3.914063-1.761719 6.113282.445313 2.824218 2.320313 4.429687 4.578126 5.898437-.191407-.066406-.390626-.117187-.582032-.183594-2.382812-.78125-4.832031-1.398437-7.308594-1.804687-.738281-.125-1.484374-.238282-2.226562-.328125-1.378906-6.875-3.320312-13.664063-5.824219-20.328125-.359375-.957032-.726562-1.90625-1.109375-2.855469-7.339844-18.257813-22.0625-44.636719-49.425781-60.613281-16.410156-9.582032-35.242187-13.886719-54.160156-13.886719-22.007813 0-46.671875 5.59375-73.351563 16.628906-26.679687-11.035156-51.34375-16.628906-73.355468-16.628906-25.644532 0-50.71875 8.339844-70.054688 25.40625-17.433594 15.390625-27.761719 34.75-33.53125 49.09375-3.011719 7.496094-5.34375 15.265625-6.933594 23.183594-.207031.027343-.414062.066406-.621094.09375-3.027343.394531-6.003906 1.097656-8.90625 2.039062-.195312.066407-.394531.117188-.585937.183594.332031-.214844.667969-.425781 1.011719-.628906 1.910156-1.140625 3.21875-3.070313 3.566406-5.269531.347656-2.199219-.296875-4.4375-1.765625-6.113282-6.742187-7.707031-8.882813-18.121094-5.71875-27.859375zm18.734375 120.628907c-18.75-.132813-33.964844-15.429688-33.964844-34.210938 0-13.003906 7.261719-24.332031 17.9375-30.117188 2.570313-1.390624 5.320313-2.4375 8.160156-3.121093-.113281 1.496093-.195312 2.996093-.253906 4.496093-.351562 8.535157.121094 17.042969.878906 25.542969 1.246094 12.710938 3.660157 25.21875 7.242188 37.410157zm213.070312 144.160156c-8.503906 10.496094-21.257812 16.648437-34.914062 16.648437-18.496094 0-34.6875-11.304687-41.507812-27.683593.914062.21875 1.832031.410156 2.746093.617187 12.695313 2.820313 25.757813 4.265625 38.765625 4.265625 10.078125 0 20.265625-.84375 30.199219-2.574219.257813-.042969.519531-.082031.777344-.125.027343.070313.054687.140625.082031.214844.917969 2.378906 1.953125 4.691406 3.042969 6.996094.265625.550781.53125 1.097656.808593 1.640625zm88.074219-130.441406c-2.640625-.269532-5.3125-.359376-7.96875-.359376-49.589843 0-89.933593 40.34375-89.933593 89.933594 0 5.867188.574218 11.738282 1.714843 17.492188.121094.613281-24.03125 2.222656-26.796875 2.222656-22.996094 0-45.519531-5.113281-66.601562-14.199219-.027344-.011719-.054688-.023437-.082032-.035156-56.285156-25.152344-97.277343-81.148437-103.800781-147.761719-2.027343-20.738281-.488281-41.90625 7.460938-61.671875 7.835937-19.488281 21.402343-41.433593 44.632812-54.21875 13.765625-7.574219 29.398438-10.878906 45.035157-10.878906 24.332031 0 48.199218 7.195313 70.410156 16.664063 1.878906.800781 4.003906.800781 5.882812 0 24.316406-10.367188 46.660156-15.941407 66.484375-16.597657 11.683594-.386719 23.472657.9375 34.605469 4.585938 32.214844 10.5625 49.664062 37.242187 58.992188 60.445312.003906.007813.007812.019531.011718.027344 6.726563 16.832031 9.039063 34.949219 8.089844 52.984375-.011719.1875-.019531.371094-.027344.554688-1.339844 24.074218-7.238281 47.707031-17.300781 69.242187-9.648437-4.613281-20.0625-7.464844-30.734375-8.421875-.023438-.003906-.046875-.007812-.074219-.007812zm0 0" fill="#FFFFFF"/></svg>
