<svg id="break" xmlns="http://www.w3.org/2000/svg" width="496.001" height="496" viewBox="0 0 496.001 496">
  <path id="Path_80" data-name="Path 80" d="M136,104v48h32V136H152V104Zm0,0" fill="#fff"/>
  <path id="Path_81" data-name="Path 81" d="M152,239.641V208H136v31.594A96.056,96.056,0,0,1,48.406,152H80V136H48.359A95.946,95.946,0,0,1,71.152,81.594L59.008,71.176A111.919,111.919,0,0,0,216.824,229L206.4,216.848A95.9,95.9,0,0,1,152,239.641Zm0,0" fill="#fff"/>
  <path id="Path_82" data-name="Path 82" d="M144,32A112.013,112.013,0,0,0,71.176,59L81.6,71.152A96.007,96.007,0,0,1,136,48.359V80h16V48.406A96.056,96.056,0,0,1,239.594,136H208v16h31.641a95.924,95.924,0,0,1-22.793,54.406l12.145,10.418A111.915,111.915,0,0,0,144,32Zm0,0" fill="#fff"/>
  <path id="Path_83" data-name="Path 83" d="M208,304H80a56.073,56.073,0,0,0-56,56v24a15.95,15.95,0,0,0,6.535,12.832,31.378,31.378,0,0,0,0,38.336A15.95,15.95,0,0,0,24,448a48.047,48.047,0,0,0,48,48H216a48.047,48.047,0,0,0,48-48,15.95,15.95,0,0,0-6.535-12.832,31.378,31.378,0,0,0,0-38.336A15.95,15.95,0,0,0,264,384V360A56.073,56.073,0,0,0,208,304Zm40,80H208v16h24a16,16,0,0,1,0,32H96v16H248a32.032,32.032,0,0,1-32,32H72a32.032,32.032,0,0,1-32-32H80V432H56a16,16,0,0,1,0-32H192V384H40V360a40.047,40.047,0,0,1,40-40H208a40.047,40.047,0,0,1,40,40Zm0,0" fill="#fff"/>
  <path id="Path_84" data-name="Path 84" d="M176,336h16v16H176Zm0,0" fill="#fff"/>
  <path id="Path_85" data-name="Path 85" d="M136,352h16v16H136Zm0,0" fill="#fff"/>
  <path id="Path_86" data-name="Path 86" d="M96,336h16v16H96Zm0,0" fill="#fff"/>
  <path id="Path_87" data-name="Path 87" d="M480,192H385.895l20.578-96H472V80H393.527l-24,112H279.6a142.983,142.983,0,0,0,8.4-48C288,64.6,223.4,0,144,0S0,64.6,0,144,64.6,288,144,288a143.7,143.7,0,0,0,114.016-56.383A15.953,15.953,0,0,0,272,240h.488l14.59,233.5A24.026,24.026,0,0,0,311.031,496H440.969a24.031,24.031,0,0,0,23.953-22.5L479.512,240H480a16.016,16.016,0,0,0,16-16V208a16.016,16.016,0,0,0-16-16ZM144,272A128,128,0,1,1,272,144,128.152,128.152,0,0,1,144,272ZM450.984,440H424v16h25.984l-1.031,16.5a8.005,8.005,0,0,1-7.984,7.5H311.03a8.006,8.006,0,0,1-7.984-7.5L302.015,456H408V440H301.015l-12.5-200H463.488ZM480,224H272V209.672c.281-.543.527-1.121.809-1.672H480Zm0,0" fill="#fff"/>
  <path id="Path_88" data-name="Path 88" d="M376,408a64,64,0,1,0-64-64A64.073,64.073,0,0,0,376,408Zm0-112a48,48,0,1,1-48,48A48.047,48.047,0,0,1,376,296Zm0,0" fill="#fff"/>
  <path id="Path_89" data-name="Path 89" d="M344,320h64v16H344Zm0,0" fill="#fff"/>
  <path id="Path_90" data-name="Path 90" d="M344,352h64v16H344Zm0,0" fill="#fff"/>
</svg>
