<svg id="Layer_1" data-name="Layer 1" xmlns="http://www.w3.org/2000/svg" viewBox="0 0 105.73 138.11"><defs><style>.cls-1{fill:#65a1d7;}</style></defs><title>lock</title><path class="cls-1" d="M22.39,45.85c0-5,.25-10,.08-15C22,15.92,31.56,5.17,43.61,1.27A26,26,0,0,1,58.25.85c7.82,2,14.39,5.82,18.79,12.89,3.11,5,4.26,10.51,4.6,16.19.32,5.34.07,10.72.07,16.44,1.17.08,2.24.21,3.31.22,2.74,0,5.49-.09,8.23,0,8.36.37,12.16,4.64,12.38,12.59.21,7.74.05,15.49.05,23.23,0,14.12.06,28.23,0,42.35,0,3.44-.35,6.81-3.07,9.6A11.56,11.56,0,0,1,94,138.08q-41.55.06-83.1,0C5.27,138.1.07,132.93.06,127.41c0-23.36-.14-46.72.07-70.08C.19,51.06,4.85,47,11.28,46.63c3.48-.18,7-.1,10.47-.14Zm5.5,0,.62.64H75.62c0-6.25.17-12-.08-17.71a25.7,25.7,0,0,0-1.66-8.29C68.46,7,51.35,1.88,39.24,9.74c-5.49,3.56-9.41,8.67-10.43,14.89C27.68,31.57,28.13,38.77,27.89,45.85ZM40.5,89.43c-1,5.76,6.09,12.45,11.81,12,7.33-.55,11.7-5.52,12.08-12.07.36-6.17-5.76-11.9-12.12-12C46.89,77.22,39.66,82.56,40.5,89.43Z"/></svg>