<svg xmlns="http://www.w3.org/2000/svg" width="47.227" height="43.932" viewBox="0 0 47.227 43.932"><defs><style>.a{fill:#ebae7f;}.b{fill:#b88158;}.c{fill:#ffcba8;}.d{fill:#ffd654;}.e{fill:#73788c;}.f{fill:#414b50;}</style></defs><path class="a" d="M4.862,245.111a4.862,4.862,0,1,0,4.862,4.862A4.868,4.868,0,0,0,4.862,245.111Z" transform="translate(0 -224.149)"/><path class="b" d="M411.44,245.111a4.862,4.862,0,1,0,4.862,4.862A4.868,4.868,0,0,0,411.44,245.111Z" transform="translate(-369.076 -224.149)"/><path class="a" d="M72.632,78.124h0A18.653,18.653,0,0,0,54,96.756v5.084a12.214,12.214,0,0,0,12.173,12.205h0a9.9,9.9,0,0,0,6.52,2.452,9.782,9.782,0,0,0,6.521-2.477,12.194,12.194,0,0,0,12.05-12.18V96.756A18.653,18.653,0,0,0,72.632,78.124Z" transform="translate(-49.019 -72.565)"/><path class="c" d="M72.632,78.124h0A18.653,18.653,0,0,0,54,96.756v5.084a12.214,12.214,0,0,0,12.173,12.205h0a9.9,9.9,0,0,0,6.52,2.452Z" transform="translate(-49.019 -72.565)"/><g transform="translate(13.927 3.511)"><path class="d" d="M155.935,67.665a1.384,1.384,0,0,0-1.93-.32,7.212,7.212,0,0,0-3.011,5.852,1.384,1.384,0,0,0,2.767,0,4.439,4.439,0,0,1,1.854-3.6A1.383,1.383,0,0,0,155.935,67.665Z" transform="translate(-150.993 -66.056)"/><path class="d" d="M203.983,57.124a1.383,1.383,0,0,0-1.555-1.188,7.21,7.21,0,0,0-6.232,7.128,1.384,1.384,0,0,0,2.767,0,4.434,4.434,0,0,1,3.831-4.385A1.384,1.384,0,0,0,203.983,57.124Z" transform="translate(-192.026 -55.923)"/></g><path class="e" d="M152.912,251.492a1.994,1.994,0,0,1-1.938,0,1.384,1.384,0,0,0-1.353,2.414,4.778,4.778,0,0,0,4.644,0,1.384,1.384,0,0,0-1.353-2.414Z" transform="translate(-135.178 -229.781)"/><g transform="translate(19.555 21.534)"><path class="f" d="M303.284,252.022a1.383,1.383,0,0,0-1.883-.53,1.994,1.994,0,0,1-1.938,0,1.384,1.384,0,0,0-1.353,2.414,4.778,4.778,0,0,0,4.644,0A1.383,1.383,0,0,0,303.284,252.022Z" transform="translate(-289.525 -251.315)"/><path class="f" d="M220.118,324.281a3.422,3.422,0,0,0-3.422-3.422h-1.272A3.422,3.422,0,0,0,212,324.281v1.272a3.422,3.422,0,0,0,3.422,3.422H216.7a3.422,3.422,0,0,0,3.422-3.422Z" transform="translate(-212.001 -314.444)"/></g><g transform="translate(19.555)"><path class="e" d="M216.1,320.858h-.672A3.422,3.422,0,0,0,212,324.281v1.272a3.422,3.422,0,0,0,3.422,3.422h.678Z" transform="translate(-212.001 -292.91)"/><path class="e" d="M367.76,22.009h-.3L368.718,20a1.4,1.4,0,0,0-1.169-2.145h-2.6a1.384,1.384,0,1,0,0,2.767h.088l-1.258,1.991a1.417,1.417,0,0,0-.043,1.425,1.4,1.4,0,0,0,1.212.734h2.812a1.384,1.384,0,0,0,0-2.767Z" transform="translate(-349.585 -17.858)"/><path class="e" d="M433.243,84.917h-.3L434.2,82.95a1.356,1.356,0,0,0,.043-1.392,1.37,1.37,0,0,0-1.212-.7h-2.6a1.384,1.384,0,0,0,0,2.767h.088l-1.258,1.985a1.339,1.339,0,0,0-.043,1.382,1.361,1.361,0,0,0,1.212.692h2.812a1.384,1.384,0,1,0,0-2.767Z" transform="translate(-409.028 -75.047)"/></g></svg>