<svg xmlns="http://www.w3.org/2000/svg" width="512" height="458" viewBox="0 0 512 458">
  <g id="family_1_" data-name="family (1)" transform="translate(0 -27)">
    <g id="Group_275" data-name="Group 275">
      <g id="Group_274" data-name="Group 274">
        <path id="Path_98" data-name="Path 98" d="M71.069,354.63A9.992,9.992,0,1,0,74,361.71,10.062,10.062,0,0,0,71.069,354.63Z" fill="#fff"/>
      </g>
    </g>
    <g id="Group_277" data-name="Group 277">
      <g id="Group_276" data-name="Group 276">
        <path id="Path_99" data-name="Path 99" d="M484.1,282.754l-.716-.743a10,10,0,1,0-14.358,13.924l.594.616a10,10,0,0,0,14.48-13.8Z" fill="#fff"/>
      </g>
    </g>
    <g id="Group_279" data-name="Group 279">
      <g id="Group_278" data-name="Group 278">
        <path id="Path_100" data-name="Path 100" d="M505.89,317.818a10,10,0,0,0-18.787,6.859,80.889,80.889,0,0,1,4.9,27.835V465H458V361.7a10,10,0,0,0-20,0V465H358.536V387.251a72.789,72.789,0,0,0-55.289-70.781c-.137-.034-.273-.065-.411-.094l-.786-.161a64.06,64.06,0,0,0,16.772-31.222l34.632,55.38a10,10,0,0,0,16.958,0l43.1-68.946a80.737,80.737,0,0,1,25.5,4.957,10,10,0,1,0,6.94-18.758,100.588,100.588,0,0,0-29.877-6.112,83.835,83.835,0,0,0,29.85-64.146V133a9.972,9.972,0,0,0-.376-2.688,84.106,84.106,0,0,0-83.624-76.189h0A84.1,84.1,0,0,0,278.3,130.312a9.972,9.972,0,0,0-.376,2.688v54.368a84.34,84.34,0,0,0,.994,12.913,63.788,63.788,0,0,0-18.478-4.069V137.744a110.744,110.744,0,1,0-221.487,0V272.8A101.024,101.024,0,0,0,0,352.513V475a10,10,0,0,0,10,10H502a10,10,0,0,0,10-10V352.513A100.852,100.852,0,0,0,505.89,317.818Zm-143.959-1.61-32.013-51.191a83.522,83.522,0,0,0,32.006,6.351H389.96ZM297.925,138.123a64,64,0,1,1,128,0v.341l-34.438-20.232a10,10,0,0,0-12.73,2.2,71.133,71.133,0,0,1-54.65,25.506H297.925Zm0,27.814h26.181a91.057,91.057,0,0,0,64.2-26.378l37.619,22.1v25.708a64,64,0,1,1-128,0V165.937ZM150.076,251.368a64.072,64.072,0,0,1-64-64V165.937h26.182a91.058,91.058,0,0,0,64.2-26.378l37.618,22.1v25.708A64.072,64.072,0,0,1,150.076,251.368Zm31.5,13.848L149.7,316.208l-28.041-44.84h28.413A83.514,83.514,0,0,0,181.578,265.216Zm30.164-3.883H243.6a38.155,38.155,0,0,0,18.829-5l17.178,4.652a10,10,0,0,0,2.614.349h18.037v10.19a44.258,44.258,0,0,1-88.516,0V261.333Zm84.238-20H283.551l-5.961-1.614a10,10,0,0,0-18.359-7.306,18.231,18.231,0,0,1-15.631,8.92H216.02a44.244,44.244,0,0,1,79.96,0ZM58.953,137.744a90.744,90.744,0,1,1,181.487,0v60.212a63.559,63.559,0,0,0-7.358,2.325,84.328,84.328,0,0,0,.994-12.913V155.937a10.121,10.121,0,0,0-4.935-8.622l-49.5-29.083a10,10,0,0,0-12.73,2.2,71.133,71.133,0,0,1-54.65,25.506H76.076a10,10,0,0,0-10,10v31.431A83.836,83.836,0,0,0,95.913,251.5a100.392,100.392,0,0,0-36.96,9.1V137.744ZM153.464,465H74V405.667a10,10,0,0,0-20,0V465H20V352.513a81.229,81.229,0,0,1,78.123-81.068l43.1,68.928a10,10,0,0,0,16.958,0l34.891-55.818a64.065,64.065,0,0,0,16.868,31.655l-.86.183c-.111.024-.222.05-.331.077a72.79,72.79,0,0,0-55.289,70.781V465Zm185.072,0H309.307V403a10,10,0,0,0-20,0v62h-76V403a10,10,0,0,0-20,0v62H173.463V387.251a52.828,52.828,0,0,1,39.957-51.333l20.106-4.281a64.291,64.291,0,0,0,44.656.114l20.433,4.176a52.823,52.823,0,0,1,39.921,51.324V465Z" fill="#fff"/>
      </g>
    </g>
    <g id="Group_281" data-name="Group 281">
      <g id="Group_280" data-name="Group 280">
        <path id="Path_101" data-name="Path 101" d="M337.16,175.83a9.995,9.995,0,1,0,2.93,7.07A10.076,10.076,0,0,0,337.16,175.83Z" fill="#fff"/>
      </g>
    </g>
    <g id="Group_283" data-name="Group 283">
      <g id="Group_282" data-name="Group 282">
        <path id="Path_102" data-name="Path 102" d="M400.83,175.83a9.995,9.995,0,1,0,2.93,7.07A10.076,10.076,0,0,0,400.83,175.83Z" fill="#fff"/>
      </g>
    </g>
    <g id="Group_285" data-name="Group 285">
      <g id="Group_284" data-name="Group 284">
        <path id="Path_103" data-name="Path 103" d="M380.686,207.885a10,10,0,0,0-14.142,0,6.75,6.75,0,0,1-9.537,0,10,10,0,1,0-14.143,14.143,26.776,26.776,0,0,0,37.822,0A10,10,0,0,0,380.686,207.885Z" fill="#fff"/>
      </g>
    </g>
    <g id="Group_287" data-name="Group 287">
      <g id="Group_286" data-name="Group 286">
        <path id="Path_104" data-name="Path 104" d="M125.309,175.83a9.992,9.992,0,1,0,2.931,7.07A10.072,10.072,0,0,0,125.309,175.83Z" fill="#fff"/>
      </g>
    </g>
    <g id="Group_289" data-name="Group 289">
      <g id="Group_288" data-name="Group 288">
        <path id="Path_105" data-name="Path 105" d="M188.979,175.83a9.992,9.992,0,1,0,2.931,7.07A10.056,10.056,0,0,0,188.979,175.83Z" fill="#fff"/>
      </g>
    </g>
    <g id="Group_291" data-name="Group 291">
      <g id="Group_290" data-name="Group 290">
        <path id="Path_106" data-name="Path 106" d="M168.84,207.885a10,10,0,0,0-14.143,0,6.75,6.75,0,0,1-9.537,0,10,10,0,1,0-14.142,14.143,26.776,26.776,0,0,0,37.822,0A10,10,0,0,0,168.84,207.885Z" fill="#fff"/>
      </g>
    </g>
    <g id="Group_293" data-name="Group 293">
      <g id="Group_292" data-name="Group 292">
        <path id="Path_107" data-name="Path 107" d="M274.911,282.7a10,10,0,0,0-14.143,0,6.748,6.748,0,0,1-9.537,0,10,10,0,1,0-14.143,14.143,26.777,26.777,0,0,0,37.823,0A10,10,0,0,0,274.911,282.7Z" fill="#fff"/>
      </g>
    </g>
  </g>
</svg>
