<?xml version="1.0"?>
<svg xmlns="http://www.w3.org/2000/svg" height="512px" viewBox="0 -30 512.162 512" width="512px"><path d="m381.960938 261.679688c-3.878907-3.757813-10.042969-3.757813-13.921876 0l-38.148437 36.976562c-3.964844 3.84375-4.0625 10.175781-.21875 14.140625s10.171875 4.066406 14.140625.222656l21.1875-20.539062v68.820312c0 5.523438 4.476562 10 10 10s10-4.476562 10-10v-68.820312l21.1875 20.539062c3.96875 3.84375 10.296875 3.746094 14.140625-.222656 3.84375-3.964844 3.746094-10.296875-.21875-14.140625zm0 0" fill="#FFFFFF"/><path d="m467 212.589844v-172.507813c0-22.058593-18.265625-39.9999998-40.320312-39.9999998h-386.679688c-22.082031.0234378-39.9765625 17.9179688-40 39.9999998v264.910157c.0195312 22.097656 17.902344 40.023437 40 40.089843h200.324219c13.894531 61 68.761719 107.042969 134.136719 107.042969 75.839843 0 137.699218-61.722656 137.699218-137.558594 0-40.394531-18.160156-76.792968-45.160156-101.976562zm-427-192.507813h386.679688c11.101562-.015625 20.15625 8.894531 20.320312 20v157.457031c-21.742188-13.453124-46.808594-20.566406-72.378906-20.535156-7.734375 0-15.453125.648438-23.082032 1.933594-22.375-13.800781-51.042968-11.898438-71.394531 4.742188l-70.222656 58.601562c-13.09375 10.855469-31.527344 12.515625-46.351563 4.175781l-143.570312-80.453125v-125.921875c.011719-11.042969 8.960938-19.988281 20-20zm0 305c-11.058594-.054687-19.992188-9.03125-20-20.089843v-116.0625l133.800781 74.984374c22.027344 12.398438 49.417969 9.917969 68.859375-6.234374l70.203125-58.601563c6.71875-5.507813 15.011719-8.753906 23.6875-9.269531-48.53125 22.59375-79.582031 71.25-79.628906 124.777344 0 3.515624.132813 6.496093.398437 10.496093zm334.460938 107c-64.914063 0-117.539063-52.625-117.539063-117.539062 0-64.914063 52.625-117.539063 117.539063-117.539063 64.914062 0 117.539062 52.625 117.539062 117.539063-.074219 64.882812-52.652344 117.464843-117.539062 117.539062zm0 0" fill="#FFFFFF"/><path d="m166.644531 176.1875c35.984375 0 65.253907-28.179688 65.253907-62.820312 0-34.640626-29.269532-62.824219-65.253907-62.824219-35.980469 0-65.253906 28.183593-65.253906 62.824219 0 34.640624 29.273437 62.820312 65.253906 62.820312zm0-105.644531c24.953125 0 45.253907 19.210937 45.253907 42.824219 0 23.609374-20.296876 42.820312-45.253907 42.820312-24.953125 0-45.253906-19.210938-45.253906-42.820312 0-23.613282 20.300781-42.824219 45.253906-42.824219zm0 0" fill="#FFFFFF"/></svg>
