<svg xmlns="http://www.w3.org/2000/svg" viewBox="0 0 24.457 28.753">
  <defs>
    <style>
      .cls-1 {
        fill: #fff;
      }
    </style>
  </defs>
  <g id="avatar_1_" data-name="avatar(1)" transform="translate(-36.073)">
    <g id="Group_6" data-name="Group 6" transform="translate(36.073)">
      <path id="Path_14" data-name="Path 14" class="cls-1" d="M143.192,15.493h.191a5.494,5.494,0,0,0,4.2-1.816c2.292-2.584,1.911-7.014,1.87-7.437-.149-3.174-1.649-4.692-2.888-5.4a6.62,6.62,0,0,0-3.2-.84h-.1a6.63,6.63,0,0,0-3.2.816c-1.25.709-2.775,2.227-2.924,5.424-.042.423-.423,4.853,1.87,7.437A5.472,5.472,0,0,0,143.192,15.493Zm-4.472-9.1c0-.018.006-.036.006-.048.2-4.269,3.227-4.728,4.525-4.728h.071c1.608.036,4.341.691,4.525,4.728a.116.116,0,0,0,.006.048c.006.042.423,4.091-1.471,6.222a3.9,3.9,0,0,1-3.066,1.274h-.06a3.89,3.89,0,0,1-3.06-1.274C138.309,10.491,138.714,6.425,138.72,6.389Z" transform="translate(-131.067)"/>
      <path id="Path_15" data-name="Path 15" class="cls-1" d="M60.529,266.649v-.018c0-.048-.006-.1-.006-.149-.036-1.179-.113-3.936-2.7-4.817l-.06-.018a17.183,17.183,0,0,1-4.942-2.251.8.8,0,1,0-.923,1.316,18.546,18.546,0,0,0,5.436,2.483c1.387.494,1.542,1.977,1.584,3.334a1.2,1.2,0,0,0,.006.149,10.808,10.808,0,0,1-.125,1.84,21.913,21.913,0,0,1-10.5,2.441,22.04,22.04,0,0,1-10.5-2.447,10.233,10.233,0,0,1-.125-1.84c0-.048.006-.1.006-.149.042-1.358.2-2.84,1.584-3.334a18.716,18.716,0,0,0,5.436-2.483.8.8,0,1,0-.923-1.316,16.992,16.992,0,0,1-4.942,2.251c-.024.006-.042.012-.06.018-2.584.887-2.662,3.644-2.7,4.817a1.2,1.2,0,0,1-.006.149v.018a9.13,9.13,0,0,0,.3,2.7.764.764,0,0,0,.31.375c.179.119,4.46,2.846,11.623,2.846a22.59,22.59,0,0,0,11.623-2.846.8.8,0,0,0,.31-.375A9.58,9.58,0,0,0,60.529,266.649Z" transform="translate(-36.073 -243.808)"/>
    </g>
  </g>
</svg>
