<svg id="house" xmlns="http://www.w3.org/2000/svg" viewBox="0 0 23.803 22.712">
  <defs>
    <style>
      .cls-1 {
        fill: #fff;
      }
    </style>
  </defs>
  <path id="Path_7" data-name="Path 7" class="cls-1" d="M23.583,21.388l-11.2-10.017a.314.314,0,0,0-.064-.049.662.662,0,0,0-.9-.015L.221,21.325a.662.662,0,0,0,.881.989l2.017-1.807V32.188a1.666,1.666,0,0,0,1.665,1.665H8.319A1.563,1.563,0,0,0,9.88,32.291V26.353a.24.24,0,0,1,.24-.24h3.569a.24.24,0,0,1,.24.24v5.938a1.563,1.563,0,0,0,1.562,1.562h3.535a1.892,1.892,0,0,0,1.665-2.086v-11.2l2.017,1.807a.666.666,0,0,0,.935-.054A.674.674,0,0,0,23.583,21.388Zm-4.22,3.265v7.1c0,.475-.235.764-.343.764H15.486a.24.24,0,0,1-.24-.24V26.353a1.563,1.563,0,0,0-1.562-1.562H10.115a1.563,1.563,0,0,0-1.562,1.562v5.938a.24.24,0,0,1-.24.24H4.779a.344.344,0,0,1-.343-.343V19.322l7.432-6.639,7.5,6.7v5.268Z" transform="translate(0 -11.141)"/>
</svg>
