<svg xmlns="http://www.w3.org/2000/svg" width="512.001" height="511.989" viewBox="0 0 512.001 511.989">
  <g id="study" transform="translate(0 -0.006)">
    <g id="Group_272" data-name="Group 272">
      <path id="Path_95" data-name="Path 95" d="M482,273.586v-47.58a15,15,0,0,0-15-15c-30.988,0-59.878,2.615-87.173,7.955a135.432,135.432,0,0,0-56.313-32.606A104.814,104.814,0,0,0,361,106.006c0-58.449-47.1-106-105-106s-105,47.551-105,106a104.808,104.808,0,0,0,37.487,80.348,135.454,135.454,0,0,0-56.313,32.606c-27.295-5.339-56.185-7.955-87.173-7.955a15,15,0,0,0-15,15v47.58a45.071,45.071,0,0,0-30,42.42v30a45.071,45.071,0,0,0,30,42.42v47.58a15,15,0,0,0,15,15c78.429,0,142.832,18.583,202.68,58.481a15.048,15.048,0,0,0,16.641,0c59.848-39.9,124.25-58.481,202.68-58.481a15,15,0,0,0,15-15v-47.58a45.071,45.071,0,0,0,30-42.42v-30A45.075,45.075,0,0,0,482,273.586ZM181,106.006c0-41.907,33.645-76,75-76s75,34.093,75,76a75,75,0,1,1-150,0Zm-136,255a15.017,15.017,0,0,1-15-15v-30a15,15,0,0,1,30,0v30A15.017,15.017,0,0,1,45,361.006ZM241,470.091c-54.453-31.141-112.886-46.88-181-48.869v-32.8a45.071,45.071,0,0,0,30-42.42v-30a45.071,45.071,0,0,0-30-42.42V241.218c70.481,2.023,127.134,18.62,181,52.916Zm15-201.946a356.487,356.487,0,0,0-87.268-40.117A105.218,105.218,0,0,1,226,211.006h60a105.218,105.218,0,0,1,57.268,17.022A356.471,356.471,0,0,0,256,268.145ZM452,421.222c-68.113,1.989-126.548,17.732-181,48.871V294.146c53.867-34.3,110.516-50.906,181-52.928v32.368a45.071,45.071,0,0,0-30,42.42v30a45.071,45.071,0,0,0,30,42.42Zm30-75.216a15,15,0,0,1-30,0v-30a15,15,0,0,1,30,0Z" fill="#fff"/>
    </g>
  </g>
</svg>
