<svg xmlns="http://www.w3.org/2000/svg" width="25.225" height="40.361" viewBox="0 0 25.225 40.361"><defs><style>.a{fill:#87afb9;}.b{fill:#e4f2f6;}.c{fill:#b4d7dc;}.d{fill:#ffd06b;}.e{fill:#e3b954;}</style></defs><path class="a" d="M233.311,3.941h-2.523A.788.788,0,0,1,230,3.153V.788A.788.788,0,0,1,230.788,0h2.523a.788.788,0,0,1,.788.788V3.153A.788.788,0,0,1,233.311,3.941Z" transform="translate(-219.437 0)"/><path class="b" d="M141.863,30.681v10.6a6.306,6.306,0,0,1-6.306,6.306h-8.75a6.306,6.306,0,0,1-6.306-6.306v-10.6A10.681,10.681,0,0,1,131.181,20h0A10.681,10.681,0,0,1,141.863,30.681Z" transform="translate(-118.569 -18.423)"/><path class="c" d="M130.869,49.271h-4.063a6.306,6.306,0,0,1-6.306-6.306v-10.6a10.684,10.684,0,0,1,8.93-10.538,10.672,10.672,0,0,0-4.867,8.961V42.964A6.306,6.306,0,0,0,130.869,49.271Z" transform="translate(-118.569 -20.104)"/><path class="c" d="M191,400h10.248v8.172a20.305,20.305,0,0,1-10.248,0Z" transform="translate(-183.511 -368.468)"/><path class="d" d="M166.712,69.065c0,5.007-3.741,9.065-8.356,9.065S150,74.072,150,69.065,153.741,60,158.356,60,166.712,64.059,166.712,69.065Z" transform="translate(-145.743 -55.27)"/><path class="e" d="M197.262,105.311a5.515,5.515,0,1,1-5.5-5.964A5.745,5.745,0,0,1,197.262,105.311Z" transform="translate(-179.152 -91.516)"/><path class="b" d="M107.351,295.766h6.385v1.865a20.314,20.314,0,0,1-7.173.554v-1.631A.788.788,0,0,1,107.351,295.766ZM119.649,280H97.577A1.577,1.577,0,0,0,96,281.577h0a1.576,1.576,0,0,0,1.188,1.526,11.43,11.43,0,0,0,11.425,11.086h0A11.43,11.43,0,0,0,120.037,283.1a1.576,1.576,0,0,0,1.188-1.526h0A1.577,1.577,0,0,0,119.649,280Z" transform="translate(-96 -257.928)"/><path class="c" d="M133.387,323.153H111.65A11.4,11.4,0,0,1,111.1,320h22.846A11.4,11.4,0,0,1,133.387,323.153Z" transform="translate(-109.906 -294.775)"/></svg>